<?xml version="1.0" encoding="UTF-8" standalone="no"?>
<!-- Created with Inkscape (http://www.inkscape.org/) -->

<svg
   version="1.1"
   id="svg18"
   width="155.27643"
   height="252.75815"
   viewBox="0 0 155.27643 252.75815"
   sodipodi:docname="2271538-200.png"
   inkscape:version="0.0"
   xmlns:inkscape="http://www.inkscape.org/namespaces/inkscape"
   xmlns:sodipodi="http://sodipodi.sourceforge.net/DTD/sodipodi-0.dtd"
   xmlns="http://www.w3.org/2000/svg"
   xmlns:svg="http://www.w3.org/2000/svg">
  <defs
     id="defs22" />
  <sodipodi:namedview
     id="namedview20"
     pagecolor="#ffffff"
     bordercolor="#999999"
     borderopacity="1"
     inkscape:showpageshadow="0"
     inkscape:pageopacity="0"
     inkscape:pagecheckerboard="0"
     inkscape:deskcolor="#d1d1d1"
     showgrid="false"
     inkscape:zoom="1.9650001"
     inkscape:cx="133.33333"
     inkscape:cy="133.33333"
     inkscape:window-width="1366"
     inkscape:window-height="691"
     inkscape:window-x="0"
     inkscape:window-y="0"
     inkscape:window-maximized="1"
     inkscape:current-layer="g24" />
  <g
     inkscape:groupmode="layer"
     inkscape:label="Image"
     id="g24">
    <path
       style="fill:#03071e;fill-opacity:1;stroke:none;stroke-width:1.33333"
       d="m 65.874253,0.8639918 c -10.84866,1.6944 -21.41053,5.02472 -30.66667,11.0134132 -6.95973,4.5028 -13.448,9.9476 -18.64706,16.4208 -39.13027,48.719199 0.6664,106.891065 21.31373,154.647065 7.982,18.46133 17.35014,36.384 25.7448,54.66666 2.14054,4.66134 5.9732,16.612 12.8848,14.99734 6.2024,-1.448 9.2064,-11.328 11.70774,-16.33067 l 24.658657,-49.33333 c 15.48134,-30.968 39.64267,-70.178 42.21733,-105.333333 C 158.59292,33.746738 112.71692,-6.4520872 65.874253,0.8639918 m 6.66667,42.4835462 c 38.627997,-5.521467 50.941327,56.189861 12,63.158402 -42.65187,7.63253 -55.20534,-56.982669 -12,-63.158402 z"
       id="path309"
       inkscape:export-filename="path309.svg"
       inkscape:export-xdpi="96"
       inkscape:export-ydpi="96" />
  </g>
</svg>
