<?xml version="1.0" encoding="UTF-8" standalone="no"?>
<!-- Created with Inkscape (http://www.inkscape.org/) -->

<svg
   version="1.1"
   id="svg18"
   width="1133.3337"
   height="1110.6667"
   viewBox="0 0 1133.3337 1110.6667"
   sodipodi:docname="v987-11a.eps"
   xmlns:inkscape="http://www.inkscape.org/namespaces/inkscape"
   xmlns:sodipodi="http://sodipodi.sourceforge.net/DTD/sodipodi-0.dtd"
   xmlns="http://www.w3.org/2000/svg"
   xmlns:svg="http://www.w3.org/2000/svg">
  <defs
     id="defs22" />
  <sodipodi:namedview
     id="namedview20"
     pagecolor="#ffffff"
     bordercolor="#999999"
     borderopacity="1"
     inkscape:showpageshadow="0"
     inkscape:pageopacity="0"
     inkscape:pagecheckerboard="0"
     inkscape:deskcolor="#d1d1d1"
     showgrid="false"
     showguides="false" />
  <g
     id="g26"
     inkscape:groupmode="layer"
     inkscape:label="Page 1"
     transform="matrix(1.3333333,0,0,-1.3333333,-233.33347,1355.3333)">
    <g
       id="g28"
       transform="scale(0.1)">
      <path
         d="m 7330.91,10165 c 517.4,0 936.83,-787.09 936.83,-1453.96 0,-666.87 -419.43,-1207.47 -936.83,-1207.47 -517.39,0 -936.83,540.6 -936.83,1207.47 0,666.87 419.44,1453.96 936.83,1453.96"
         style="fill:#adc178;fill-opacity:1;fill-rule:nonzero;stroke:none"
         id="path32" />
      <path
         d="m 4669.09,10165 c 517.39,0 936.83,-787.09 936.83,-1453.96 0,-666.87 -419.44,-1207.47 -936.83,-1207.47 -517.4,0 -936.83,540.6 -936.83,1207.47 0,666.87 419.43,1453.96 936.83,1453.96"
         style="fill:#adc178;fill-opacity:1;fill-rule:nonzero;stroke:none"
         id="path34" />
      <path
         d="m 1863.52,6648.02 c -219.73,550.1 -123.5,1341.37 315.11,1516.57 438.62,175.2 1053.51,-332.03 1273.24,-882.12 219.73,-550.1 42.29,-1138.07 -396.33,-1313.26 -438.61,-175.21 -972.29,128.71 -1192.02,678.81"
         style="fill:#adc178;fill-opacity:1;fill-rule:nonzero;stroke:none"
         id="path36" />
      <path
         d="M 10136.5,6648.02 C 9916.76,6097.92 9383.07,5794 8944.45,5969.21 c -438.61,175.19 -616.05,763.16 -396.32,1313.26 219.72,550.09 834.62,1057.32 1273.24,882.12 438.63,-175.2 534.83,-966.47 315.13,-1516.57"
         style="fill:#adc178;fill-opacity:1;fill-rule:nonzero;stroke:none"
         id="path38" />
      <path
         d="m 6985.91,4152.07 c -127.7,-233.34 -329.25,-438.89 -499.42,-598.79 -91.48,-85.96 -187.56,-166.42 -287.69,-240.77 -0.19,-0.15 -0.38,-0.28 -0.6,-0.44 -117.63,-86.58 -278.77,-86.58 -396.41,0 -0.2,0.16 -0.4,0.29 -0.59,0.44 -100.12,74.35 -196.21,154.81 -287.69,240.77 -170.17,159.9 -371.72,365.45 -499.42,598.79 -105.47,192.74 -160.56,404.41 -105.96,624.99 52.32,211.41 219.2,397.13 423.81,423.06 236.58,29.98 512.03,-136.5 668.06,-327.74 156.02,191.24 431.47,357.72 668.06,327.74 204.62,-25.93 371.48,-211.65 423.81,-423.06 54.59,-220.58 -0.49,-432.25 -105.96,-624.99 z M 9351.58,3609.38 C 9251.12,4059.92 9011.61,4466.22 8746.66,4842.77 8125.95,5724.93 7131.77,6615.73 6000,6615.73 4872.89,6615.73 3874.2,5725.13 3253.34,4842.77 2988.39,4466.22 2748.88,4059.92 2648.42,3609.38 2547.94,3158.83 2602.89,2655.02 2882,2289.01 3161.1,1923 3689.79,1740.3 4103.23,1938.4 c 245.81,117.76 444.74,355.33 715.91,378.15 248.94,20.96 468.94,-146.69 676.56,-286.85 150.07,-101.3 330.96,-193.5 504.3,-194.7 173.33,1.2 354.23,93.4 504.3,194.7 207.62,140.16 427.61,307.81 676.56,286.85 271.17,-22.82 470.1,-260.39 715.91,-378.15 413.44,-198.1 942.13,-15.4 1221.24,350.61 279.1,366.01 334.05,869.82 233.57,1320.37"
         style="fill:#adc178;fill-opacity:1;fill-rule:nonzero;stroke:none"
         id="path40" />
    </g>
  </g>
</svg>
